# xmcd CD database file
#
# Track frame offsets:
#	150
#	11390
#	26515
#	40670
#	56636
#	73588
#	87152
#	103263
#
# Disc length: 1551 seconds
#
# Revision: 0
# Processed by: cddbd v1.5.1PL0 Copyright (c) Steve Scherf et al.
# Submitted via: CDex 1.51
#
DISCID=5d060d08
DTITLE=Lincoln Center Jazz Orchestra - Essentially Ellington 2002
DYEAR=2002
DGENRE=Jazz
TTITLE0=Raincheck
TTITLE1=Sultry Sunset
TTITLE2=Such Sweet Thunder
TTITLE3=It Don't Mean a Thing(If It Ain't Got That Swing)
TTITLE4=Zweet Zursday
TTITLE5=Things Ain't What They Used To Be
TTITLE6=All Heart
TTITLE7=The Eighth Veil
EXTD=YEAR: 2002
EXTT0=
EXTT1=
EXTT2=
EXTT3=
EXTT4=
EXTT5=
EXTT6=
EXTT7=
PLAYORDER=
